<svg xmlns="http://www.w3.org/2000/svg" width="32" height="32" viewBox="0 0 8.467 8.467" id="pokemon">
  <path d="M4.232 289.46a3.307 3.307 0 0 0-3.271 2.844h2.324c.172-.35.53-.595.947-.595.416 0 .774.244.946.595h2.325a3.307 3.307 0 0 0-3.271-2.845zM.944 293.098a3.307 3.307 0 0 0 3.288 2.976 3.307 3.307 0 0 0 3.29-2.976h-2.29c-.14.42-.534.728-1 .728-.467 0-.86-.308-1-.728z" style="opacity:1;fill:#3b3c3d;fill-opacity:1;stroke:none;stroke-width:1;stroke-linecap:round;stroke-linejoin:round;stroke-miterlimit:4;stroke-dasharray:none;stroke-dashoffset:0;stroke-opacity:1" transform="translate(0 -288.533)"></path>
  <path d="M4.232 292.123a.646.646 0 0 0-.644.644c0 .354.29.644.644.644.354 0 .644-.29.644-.644a.647.647 0 0 0-.644-.644zm0 .264c.21 0 .38.169.38.38s-.17.38-.38.38a.377.377 0 0 1-.38-.38c0-.211.168-.38.38-.38z" style="color:#000;font-style:normal;font-variant:normal;font-weight:400;font-stretch:normal;font-size:medium;line-height:normal;font-family:sans-serif;text-indent:0;text-align:start;text-decoration:none;text-decoration-line:none;text-decoration-style:solid;text-decoration-color:#000;letter-spacing:normal;word-spacing:normal;text-transform:none;direction:ltr;writing-mode:lr-tb;baseline-shift:baseline;text-anchor:start;white-space:normal;clip-rule:nonzero;display:inline;overflow:visible;visibility:visible;opacity:1;isolation:auto;mix-blend-mode:normal;color-interpolation:sRGB;color-interpolation-filters:linearRGB;solid-color:#000;solid-opacity:1;fill:#3b3c3d;fill-opacity:1;fill-rule:nonzero;stroke:none;stroke-width:.99999988;stroke-linecap:round;stroke-linejoin:round;stroke-miterlimit:4;stroke-dasharray:none;stroke-dashoffset:0;stroke-opacity:1;color-rendering:auto;image-rendering:auto;shape-rendering:auto;text-rendering:auto;enable-background:accumulate" transform="translate(0 -288.533)"></path>
</svg>
